<svg width="59" height="60" viewBox="0 0 59 60" fill="none" xmlns="http://www.w3.org/2000/svg">
<path d="M36.4579 48.3965H10.9959C9.21793 48.3965 7.77393 46.9545 7.77393 45.1745V23.7025C7.77393 21.9245 9.21593 20.4805 10.9959 20.4805H36.4579C38.2359 20.4805 39.6799 21.9225 39.6799 23.7025V45.1765C39.6799 46.9545 38.2379 48.3965 36.4579 48.3965Z" fill="url(#paint0_linear_1223_13584)"/>
<path d="M57.034 48.3967H41.958C41.208 48.3967 40.6 47.7887 40.6 47.0387V32.8827C40.6 32.1327 41.208 31.5247 41.958 31.5247H48.594C48.94 31.5247 49.272 31.6567 49.524 31.8927L57.964 39.8027C58.238 40.0587 58.394 40.4187 58.394 40.7947V47.0387C58.392 47.7887 57.784 48.3967 57.034 48.3967Z" fill="url(#paint1_linear_1223_13584)"/>
<path d="M56.6263 50.5689H9.65833C9.16833 50.5689 8.77033 50.9669 8.77033 51.4569V52.8169C8.77033 53.3069 9.16833 53.7049 9.65833 53.7049H11.4823C11.3183 54.1509 11.2243 54.6329 11.2243 55.1369C11.2243 57.4329 13.0863 59.2949 15.3823 59.2949C17.6783 59.2949 19.5403 57.4329 19.5403 55.1369C19.5403 54.6329 19.4463 54.1529 19.2823 53.7049H45.5683C45.4043 54.1509 45.3103 54.6329 45.3103 55.1369C45.3103 57.4329 47.1723 59.2949 49.4683 59.2949C51.7643 59.2949 53.6263 57.4329 53.6263 55.1369C53.6263 54.6329 53.5323 54.1529 53.3683 53.7049H56.6243C57.1143 53.7049 57.5123 53.3069 57.5123 52.8169V51.4569C57.5143 50.9669 57.1163 50.5689 56.6263 50.5689Z" fill="url(#paint2_linear_1223_13584)"/>
<path d="M16.8 0C7.522 0 0 7.522 0 16.8C0 26.078 7.522 33.6 16.8 33.6C26.078 33.6 33.6 26.078 33.6 16.8C33.6 7.522 26.08 0 16.8 0ZM21.344 5.82L17.944 18.32C17.776 18.938 17.256 19.396 16.624 19.484C16.548 19.494 16.474 19.5 16.4 19.5C15.846 19.5 15.326 19.212 15.034 18.73L10.234 10.83C9.776 10.074 10.016 9.09 10.77 8.632C11.526 8.174 12.51 8.414 12.968 9.168L15.834 13.886L18.256 4.98C18.488 4.128 19.366 3.624 20.22 3.856C21.074 4.088 21.576 4.966 21.344 5.82Z" fill="url(#paint3_linear_1223_13584)"/>
<mask id="mask0_1223_13584" style="mask-type:alpha" maskUnits="userSpaceOnUse" x="0" y="0" width="34" height="34">
<path d="M16.8 0C7.522 0 0 7.522 0 16.8C0 26.078 7.522 33.6 16.8 33.6C26.078 33.6 33.6 26.078 33.6 16.8C33.6 7.522 26.08 0 16.8 0ZM21.344 5.82L17.944 18.32C17.776 18.938 17.256 19.396 16.624 19.484C16.548 19.494 16.474 19.5 16.4 19.5C15.846 19.5 15.326 19.212 15.034 18.73L10.234 10.83C9.776 10.074 10.016 9.09 10.77 8.632C11.526 8.174 12.51 8.414 12.968 9.168L15.834 13.886L18.256 4.98C18.488 4.128 19.366 3.624 20.22 3.856C21.074 4.088 21.576 4.966 21.344 5.82Z" fill="url(#paint4_linear_1223_13584)"/>
</mask>
<g mask="url(#mask0_1223_13584)">
<g opacity="0.3" filter="url(#filter0_f_1223_13584)">
<path d="M36.4574 48.3974H10.9954C9.21744 48.3974 7.77344 46.9554 7.77344 45.1754V23.7034C7.77344 21.9254 9.21544 20.4814 10.9954 20.4814H36.4574C38.2354 20.4814 39.6794 21.9234 39.6794 23.7034V45.1774C39.6794 46.9554 38.2374 48.3974 36.4574 48.3974Z" fill="#FF4F4F"/>
<path d="M57.0335 48.3976H41.9575C41.2075 48.3976 40.5995 47.7896 40.5995 47.0396V32.8836C40.5995 32.1336 41.2075 31.5256 41.9575 31.5256H48.5935C48.9395 31.5256 49.2715 31.6576 49.5235 31.8937L57.9635 39.8036C58.2375 40.0597 58.3935 40.4197 58.3935 40.7957V47.0396C58.3915 47.7896 57.7835 48.3976 57.0335 48.3976Z" fill="#FF4F4F"/>
<path d="M56.6258 50.5699H9.65784C9.16784 50.5699 8.76984 50.9679 8.76984 51.4579V52.8179C8.76984 53.3079 9.16784 53.7059 9.65784 53.7059H11.4818C11.3178 54.1519 11.2238 54.6339 11.2238 55.1379C11.2238 57.4339 13.0858 59.2959 15.3818 59.2959C17.6778 59.2959 19.5398 57.4339 19.5398 55.1379C19.5398 54.6339 19.4458 54.1539 19.2818 53.7059H45.5678C45.4038 54.1519 45.3098 54.6339 45.3098 55.1379C45.3098 57.4339 47.1718 59.2959 49.4678 59.2959C51.7638 59.2959 53.6258 57.4339 53.6258 55.1379C53.6258 54.6339 53.5318 54.1539 53.3678 53.7059H56.6238C57.1138 53.7059 57.5118 53.3079 57.5118 52.8179V51.4579C57.5138 50.9679 57.1158 50.5699 56.6258 50.5699Z" fill="#FF4F4F"/>
</g>
</g>
<defs>
<filter id="filter0_f_1223_13584" x="-2.22656" y="10.4814" width="70.6201" height="58.8145" filterUnits="userSpaceOnUse" color-interpolation-filters="sRGB">
<feFlood flood-opacity="0" result="BackgroundImageFix"/>
<feBlend mode="normal" in="SourceGraphic" in2="BackgroundImageFix" result="shape"/>
<feGaussianBlur stdDeviation="5" result="effect1_foregroundBlur_1223_13584"/>
</filter>
<linearGradient id="paint0_linear_1223_13584" x1="2.03158" y1="26.9449" x2="49.8025" y2="66.999" gradientUnits="userSpaceOnUse">
<stop offset="1.02546e-07" stop-color="#FF6E6E"/>
<stop offset="0.247" stop-color="#FF6565"/>
<stop offset="0.6561" stop-color="#FF4B4B"/>
<stop offset="1" stop-color="#FF3131"/>
</linearGradient>
<linearGradient id="paint1_linear_1223_13584" x1="2.03158" y1="26.9449" x2="49.8025" y2="66.999" gradientUnits="userSpaceOnUse">
<stop offset="1.02546e-07" stop-color="#FF6E6E"/>
<stop offset="0.247" stop-color="#FF6565"/>
<stop offset="0.6561" stop-color="#FF4B4B"/>
<stop offset="1" stop-color="#FF3131"/>
</linearGradient>
<linearGradient id="paint2_linear_1223_13584" x1="2.03158" y1="26.9449" x2="49.8025" y2="66.999" gradientUnits="userSpaceOnUse">
<stop offset="1.02546e-07" stop-color="#FF6E6E"/>
<stop offset="0.247" stop-color="#FF6565"/>
<stop offset="0.6561" stop-color="#FF4B4B"/>
<stop offset="1" stop-color="#FF3131"/>
</linearGradient>
<linearGradient id="paint3_linear_1223_13584" x1="5.3217" y1="7.175" x2="28.3033" y2="26.4442" gradientUnits="userSpaceOnUse">
<stop offset="1.07673e-07" stop-color="#70747F"/>
<stop offset="0.9944" stop-color="#101218"/>
</linearGradient>
<linearGradient id="paint4_linear_1223_13584" x1="5.3217" y1="7.175" x2="28.3033" y2="26.4442" gradientUnits="userSpaceOnUse">
<stop offset="1.07673e-07" stop-color="#70747F"/>
<stop offset="0.9944" stop-color="#101218"/>
</linearGradient>
</defs>
</svg>
