<svg width="68" height="58" viewBox="0 0 68 58" fill="none" xmlns="http://www.w3.org/2000/svg">
<path fill-rule="evenodd" clip-rule="evenodd" d="M23.2685 1.02078L1.95967 15.4405H2.33186C1.29313 15.9121 0.57074 16.9584 0.57074 18.1735V49.8219C0.57074 52.031 2.3616 53.8219 4.57074 53.8219H12.2467C12.0924 53.5382 12.0046 53.2129 12.0046 52.8672V26.4006C12.0046 25.296 12.9001 24.4006 14.0046 24.4006H35.9956C37.1001 24.4006 37.9956 25.296 37.9956 26.4006V52.8672C37.9956 53.2129 37.9078 53.5382 37.7535 53.8219H44.3072C46.5164 53.8219 48.3072 52.031 48.3072 49.8219V18.1735C48.3072 16.9585 47.5849 15.9121 46.5462 15.4405L46.9266 15.4405L26.6875 1.05984C25.6675 0.335102 24.3048 0.319535 23.2685 1.02078ZM10.642 20.1169C9.91326 20.1169 9.32249 20.7076 9.32249 21.4364C9.32249 22.1651 9.91326 22.7559 10.642 22.7559H38.2439C38.9726 22.7559 39.5634 22.1651 39.5634 21.4364C39.5634 20.7076 38.9726 20.1169 38.2439 20.1169H10.642ZM43.6809 34.9617V26.4245H48.1769V34.9617L45.8796 33.6403L43.6809 34.9617Z" fill="url(#paint0_linear_1223_13539)"/>
<path fill-rule="evenodd" clip-rule="evenodd" d="M16.6856 39.1269H25.4437C26.3207 39.1269 27.0311 38.4165 27.0311 37.5395V28.2679C27.0311 27.3909 26.3207 26.6804 25.4437 26.6804H22.0856V30.5588L21.0419 29.9585L20.043 30.5588V26.6804H16.6856C15.8086 26.6804 15.0981 27.3909 15.0981 28.2679V37.5395C15.0981 38.4165 15.8086 39.1269 16.6856 39.1269Z" fill="url(#paint1_linear_1223_13539)"/>
<path fill-rule="evenodd" clip-rule="evenodd" d="M16.6849 53.821H25.443C26.32 53.821 27.0305 53.1105 27.0305 52.2336V42.962C27.0305 42.085 26.32 41.3745 25.443 41.3745H22.0849V45.2529L21.0412 44.6526L20.0424 45.2529V41.3745H16.6849C15.808 41.3745 15.0975 42.085 15.0975 42.962V52.2336C15.0975 53.1105 15.808 53.821 16.6849 53.821Z" fill="url(#paint2_linear_1223_13539)"/>
<path fill-rule="evenodd" clip-rule="evenodd" d="M1.96016 15.4405L23.269 1.02078C24.3053 0.319535 25.668 0.335102 26.688 1.05984L46.9271 15.4405L46.5467 15.4405C47.5854 15.9121 48.3077 16.9585 48.3077 18.1735V49.8219C48.3077 52.031 46.5168 53.8219 44.3077 53.8219H37.7539C37.9083 53.5382 37.996 53.2129 37.996 52.8672V26.4006C37.996 25.296 37.1006 24.4006 35.996 24.4006H14.0051C12.9005 24.4006 12.0051 25.296 12.0051 26.4006V52.8672C12.0051 53.2129 12.0928 53.5382 12.2472 53.8219H4.57123C2.36209 53.8219 0.571228 52.031 0.571228 49.8219V18.1735C0.571228 16.9584 1.29361 15.9121 2.33235 15.4405H1.96016ZM9.32298 21.4364C9.32298 20.7076 9.91374 20.1169 10.6425 20.1169H38.2444C38.9731 20.1169 39.5639 20.7076 39.5639 21.4364C39.5639 22.1651 38.9731 22.7559 38.2444 22.7559H10.6425C9.91374 22.7559 9.32298 22.1651 9.32298 21.4364Z" fill="url(#paint3_linear_1223_13539)"/>
<path fill-rule="evenodd" clip-rule="evenodd" d="M31.5619 47.6244H47.2216C48.3163 47.6244 49.2032 46.7375 49.2032 45.644V32.437C49.2032 31.3423 48.3151 30.4554 47.2216 30.4554H31.5619C30.4672 30.4554 29.5803 31.3435 29.5803 32.437V42.3916H34.3127C34.663 42.3916 34.947 42.6755 34.947 43.0258C34.947 43.3761 34.663 43.6601 34.3127 43.6601H29.5803V44.7619H32.145C32.4953 44.7619 32.7793 45.0458 32.7793 45.3961C32.7793 45.7464 32.4953 46.0304 32.145 46.0304H29.6182C29.7986 46.9394 30.6009 47.6244 31.5619 47.6244ZM50.6042 47.6245H59.8763C60.3376 47.6245 60.7115 47.2505 60.7127 46.7893V42.9491C60.7127 42.7178 60.6168 42.4964 60.4483 42.339L55.2575 37.4742C55.1025 37.329 54.8983 37.2479 54.6855 37.2479H50.6042C50.143 37.2479 49.769 37.6218 49.769 38.0831V46.7893C49.769 47.2505 50.143 47.6245 50.6042 47.6245ZM59.6256 48.9604H30.7393C30.4379 48.9604 30.1931 49.2052 30.1931 49.5066V50.343C30.1931 50.6444 30.4379 50.8891 30.7393 50.8891H31.8611C31.7602 51.1634 31.7024 51.4599 31.7024 51.7698C31.7024 53.1819 32.8476 54.3271 34.2596 54.3271C35.6717 54.3271 36.8169 53.1819 36.8169 51.7698C36.8169 51.4599 36.7591 51.1647 36.6582 50.8891H52.8247C52.7238 51.1634 52.666 51.4599 52.666 51.7698C52.666 53.1819 53.8112 54.3271 55.2232 54.3271C56.6353 54.3271 57.7805 53.1819 57.7805 51.7698C57.7805 51.4599 57.7227 51.1647 57.6218 50.8891H59.6243C59.9257 50.8891 60.1705 50.6444 60.1705 50.343V49.5066C60.1717 49.2052 59.9269 48.9604 59.6256 48.9604Z" fill="url(#paint4_linear_1223_13539)"/>
<g filter="url(#filter0_f_1223_13539)">
<mask id="mask0_1223_13539" style="mask-type:alpha" maskUnits="userSpaceOnUse" x="29" y="26" width="39" height="30">
<path fill-rule="evenodd" clip-rule="evenodd" d="M31.9639 47.336H50.8037C52.1208 47.336 53.1877 46.269 53.1877 44.9534V29.0644C53.1877 27.7474 52.1193 26.6804 50.8037 26.6804H31.9639C30.6469 26.6804 29.5799 27.7489 29.5799 29.0644V41.0403H35.2738C35.6952 41.0403 36.0368 41.3819 36.0368 41.8033C36.0368 42.2247 35.6952 42.5664 35.2738 42.5664H29.5799V43.8917H32.6665C33.0879 43.8917 33.4295 44.2333 33.4295 44.6547C33.4295 45.0761 33.0879 45.4177 32.6665 45.4177H29.6254C29.8422 46.5117 30.8076 47.336 31.9639 47.336ZM54.8733 47.3361H66.0283C66.5833 47.3361 67.0331 46.8862 67.0346 46.3313V41.7113C67.0346 41.4331 66.9192 41.1667 66.7164 40.9773L60.4715 35.1245C60.2851 34.9499 60.0394 34.8522 59.7834 34.8522H54.8733C54.3184 34.8522 53.8685 35.3021 53.8685 35.857V46.3313C53.8685 46.8862 54.3184 47.3361 54.8733 47.3361ZM65.7267 48.9434H30.9742C30.6116 48.9434 30.3172 49.2379 30.3172 49.6004V50.6067C30.3172 50.9693 30.6116 51.2638 30.9742 51.2638H32.3238C32.2025 51.5938 32.1329 51.9504 32.1329 52.3233C32.1329 54.0222 33.5106 55.3999 35.2095 55.3999C36.9083 55.3999 38.2861 54.0222 38.2861 52.3233C38.2861 51.9504 38.2165 51.5952 38.0952 51.2638H57.5447C57.4233 51.5938 57.3538 51.9504 57.3538 52.3233C57.3538 54.0222 58.7315 55.3999 60.4303 55.3999C62.1292 55.3999 63.5069 54.0222 63.5069 52.3233C63.5069 51.9504 63.4374 51.5952 63.316 51.2638H65.7252C66.0877 51.2638 66.3822 50.9693 66.3822 50.6067V49.6004C66.3837 49.2379 66.0892 48.9434 65.7267 48.9434Z" fill="url(#paint5_linear_1223_13539)"/>
</mask>
<g mask="url(#mask0_1223_13539)">
<path fill-rule="evenodd" clip-rule="evenodd" d="M1.95979 15.4406L23.2687 1.02091C24.305 0.319657 25.6676 0.335224 26.6876 1.05997L46.9268 15.4406L46.5463 15.4406C47.585 15.9123 48.3073 16.9586 48.3073 18.1736V49.822C48.3073 52.0311 46.5165 53.822 44.3073 53.822H37.7536C37.908 53.5383 37.9957 53.2131 37.9957 52.8673V26.4007C37.9957 25.2962 37.1003 24.4007 35.9957 24.4007H14.0048C12.9002 24.4007 12.0048 25.2962 12.0048 26.4007V52.8673C12.0048 53.2131 12.0925 53.5383 12.2469 53.822H4.57086C2.36172 53.822 0.570862 52.0311 0.570862 49.822V18.1736C0.570862 16.9585 1.29325 15.9122 2.33198 15.4406H1.95979ZM9.32262 21.4365C9.32262 20.7078 9.91338 20.117 10.6421 20.117H38.244C38.9727 20.117 39.5635 20.7078 39.5635 21.4365C39.5635 22.1652 38.9727 22.756 38.244 22.756H10.6421C9.91338 22.756 9.32262 22.1652 9.32262 21.4365Z" fill="url(#paint6_linear_1223_13539)" fill-opacity="0.25"/>
</g>
</g>
<defs>
<filter id="filter0_f_1223_13539" x="25.5799" y="22.6804" width="26.7274" height="35.1416" filterUnits="userSpaceOnUse" color-interpolation-filters="sRGB">
<feFlood flood-opacity="0" result="BackgroundImageFix"/>
<feBlend mode="normal" in="SourceGraphic" in2="BackgroundImageFix" result="shape"/>
<feGaussianBlur stdDeviation="2" result="effect1_foregroundBlur_1223_13539"/>
</filter>
<linearGradient id="paint0_linear_1223_13539" x1="31.7341" y1="5.45566" x2="18.9863" y2="53.453" gradientUnits="userSpaceOnUse">
<stop stop-color="#FF6565"/>
<stop offset="1" stop-color="#FF3333"/>
</linearGradient>
<linearGradient id="paint1_linear_1223_13539" x1="19.5673" y1="28.5444" x2="23.7726" y2="39.5865" gradientUnits="userSpaceOnUse">
<stop offset="1.07673e-07" stop-color="#676873"/>
<stop offset="0.9944" stop-color="#3C3F4B"/>
</linearGradient>
<linearGradient id="paint2_linear_1223_13539" x1="19.5666" y1="43.2385" x2="23.7718" y2="54.2804" gradientUnits="userSpaceOnUse">
<stop offset="1.07673e-07" stop-color="#676873"/>
<stop offset="0.9944" stop-color="#3C3F4B"/>
</linearGradient>
<linearGradient id="paint3_linear_1223_13539" x1="31.7346" y1="5.45566" x2="18.9868" y2="53.453" gradientUnits="userSpaceOnUse">
<stop stop-color="#FF6565"/>
<stop offset="1" stop-color="#FF3333"/>
</linearGradient>
<linearGradient id="paint4_linear_1223_13539" x1="26.0487" y1="34.4312" x2="63.0573" y2="62.7291" gradientUnits="userSpaceOnUse">
<stop offset="0.111708" stop-color="#7D818C"/>
<stop offset="0.334653" stop-color="#6B6F7A"/>
<stop offset="0.682205" stop-color="#464A55"/>
<stop offset="1" stop-color="#2E313D"/>
</linearGradient>
<linearGradient id="paint5_linear_1223_13539" x1="25.331" y1="31.4636" x2="69.8553" y2="65.5081" gradientUnits="userSpaceOnUse">
<stop offset="0.111708" stop-color="#7D818C"/>
<stop offset="0.334653" stop-color="#6B6F7A"/>
<stop offset="0.682205" stop-color="#464A55"/>
<stop offset="1" stop-color="#2E313D"/>
</linearGradient>
<linearGradient id="paint6_linear_1223_13539" x1="31.7342" y1="5.45579" x2="18.9864" y2="53.4532" gradientUnits="userSpaceOnUse">
<stop stop-color="#FF6565"/>
<stop offset="1" stop-color="#FF3333"/>
</linearGradient>
</defs>
</svg>
