<svg width="56" height="62" viewBox="0 0 56 62" fill="none" xmlns="http://www.w3.org/2000/svg">
<path d="M31.406 0.895508H4.268C1.912 0.895508 0 2.49351 0 4.46351V54.6835C0 56.6555 1.912 58.2515 4.268 58.2515H14.026H21.038H31.404C33.762 58.2515 35.672 56.6535 35.672 54.6835V4.46351C35.674 2.49351 33.764 0.895508 31.406 0.895508ZM13.63 40.5355C13.63 41.0995 13.174 41.5555 12.61 41.5555H9.808C9.244 41.5555 8.788 41.0995 8.788 40.5355V36.7115C8.788 36.1475 9.244 35.6915 9.808 35.6915H12.612C13.176 35.6915 13.632 36.1475 13.632 36.7115V40.5355H13.63ZM13.63 31.2315C13.63 31.7955 13.174 32.2515 12.61 32.2515H9.808C9.244 32.2515 8.788 31.7955 8.788 31.2315V27.4075C8.788 26.8435 9.244 26.3875 9.808 26.3875H12.612C13.176 26.3875 13.632 26.8435 13.632 27.4075V31.2315H13.63ZM13.63 21.9275C13.63 22.4915 13.174 22.9475 12.61 22.9475H9.808C9.244 22.9475 8.788 22.4915 8.788 21.9275V18.1035C8.788 17.5395 9.244 17.0835 9.808 17.0835H12.612C13.176 17.0835 13.632 17.5395 13.632 18.1035V21.9275H13.63ZM13.63 12.6215C13.63 13.1855 13.174 13.6415 12.61 13.6415H9.808C9.244 13.6415 8.788 13.1855 8.788 12.6215V8.79751C8.788 8.23351 9.244 7.77751 9.808 7.77751H12.612C13.176 7.77751 13.632 8.23351 13.632 8.79751V12.6215H13.63ZM26.632 40.5355C26.632 41.0995 26.176 41.5555 25.612 41.5555H22.808C22.244 41.5555 21.788 41.0995 21.788 40.5355V36.7115C21.788 36.1475 22.244 35.6915 22.808 35.6915H25.612C26.176 35.6915 26.632 36.1475 26.632 36.7115V40.5355ZM13.63 50.1275C13.63 50.6915 13.174 51.1475 12.61 51.1475H9.808C9.244 51.1475 8.788 50.6915 8.788 50.1275V46.3035C8.788 45.7395 9.244 45.2835 9.808 45.2835H12.612C13.176 45.2835 13.632 45.7395 13.632 46.3035V50.1275H13.63ZM26.632 31.2315C26.632 31.7955 26.176 32.2515 25.612 32.2515H22.808C22.244 32.2515 21.788 31.7955 21.788 31.2315V27.4075C21.788 26.8435 22.244 26.3875 22.808 26.3875H25.612C26.176 26.3875 26.632 26.8435 26.632 27.4075V31.2315ZM26.632 21.9275C26.632 22.4915 26.176 22.9475 25.612 22.9475H22.808C22.244 22.9475 21.788 22.4915 21.788 21.9275V18.1035C21.788 17.5395 22.244 17.0835 22.808 17.0835H25.612C26.176 17.0835 26.632 17.5395 26.632 18.1035V21.9275ZM26.632 12.6215C26.632 13.1855 26.176 13.6415 25.612 13.6415H22.808C22.244 13.6415 21.788 13.1855 21.788 12.6215V8.79751C21.788 8.23351 22.244 7.77751 22.808 7.77751H25.612C26.176 7.77751 26.632 8.23351 26.632 8.79751V12.6215ZM24.046 58.2675V57.1075V55.9475V46.7955C24.046 45.9615 24.722 45.2855 25.556 45.2855H29.926C30.76 45.2855 31.436 45.9615 31.436 46.7955V55.9475V57.1075V58.2675" fill="url(#paint0_linear_1223_13618)"/>
<path d="M39.9276 20.9619C31.3836 20.9619 24.4556 27.8879 24.4556 36.4339C24.4556 42.3739 31.9316 53.4959 36.4896 59.7239C38.1896 62.0479 41.6616 62.0479 43.3616 59.7239C47.9236 53.4959 55.3996 42.3739 55.3996 36.4339C55.3996 27.8899 48.4736 20.9619 39.9276 20.9619ZM39.9636 39.8399C37.0556 39.8399 34.6996 37.4839 34.6996 34.5759C34.6996 31.6679 37.0556 29.3119 39.9636 29.3119C42.8716 29.3119 45.2276 31.6679 45.2276 34.5759C45.2276 37.4839 42.8716 39.8399 39.9636 39.8399Z" fill="url(#paint1_linear_1223_13618)"/>
<mask id="mask0_1223_13618" style="mask-type:alpha" maskUnits="userSpaceOnUse" x="24" y="20" width="32" height="42">
<path d="M39.9281 20.9619C31.3841 20.9619 24.4561 27.8879 24.4561 36.4339C24.4561 42.3739 31.9321 53.4959 36.4901 59.7239C38.1901 62.0479 41.6621 62.0479 43.3621 59.7239C47.9241 53.4959 55.4001 42.3739 55.4001 36.4339C55.4001 27.8899 48.4741 20.9619 39.9281 20.9619ZM39.9641 39.8399C37.0561 39.8399 34.7001 37.4839 34.7001 34.5759C34.7001 31.6679 37.0561 29.3119 39.9641 29.3119C42.8721 29.3119 45.2281 31.6679 45.2281 34.5759C45.2281 37.4839 42.8721 39.8399 39.9641 39.8399Z" fill="url(#paint2_linear_1223_13618)"/>
</mask>
<g mask="url(#mask0_1223_13618)">
<g opacity="0.3" filter="url(#filter0_f_1223_13618)">
<path d="M31.406 0.895508H4.268C1.912 0.895508 0 2.49351 0 4.46351V54.6835C0 56.6555 1.912 58.2515 4.268 58.2515H14.026H21.038H31.404C33.762 58.2515 35.672 56.6535 35.672 54.6835V4.46351C35.674 2.49351 33.764 0.895508 31.406 0.895508ZM13.63 40.5355C13.63 41.0995 13.174 41.5555 12.61 41.5555H9.808C9.244 41.5555 8.788 41.0995 8.788 40.5355V36.7115C8.788 36.1475 9.244 35.6915 9.808 35.6915H12.612C13.176 35.6915 13.632 36.1475 13.632 36.7115V40.5355H13.63ZM13.63 31.2315C13.63 31.7955 13.174 32.2515 12.61 32.2515H9.808C9.244 32.2515 8.788 31.7955 8.788 31.2315V27.4075C8.788 26.8435 9.244 26.3875 9.808 26.3875H12.612C13.176 26.3875 13.632 26.8435 13.632 27.4075V31.2315H13.63ZM13.63 21.9275C13.63 22.4915 13.174 22.9475 12.61 22.9475H9.808C9.244 22.9475 8.788 22.4915 8.788 21.9275V18.1035C8.788 17.5395 9.244 17.0835 9.808 17.0835H12.612C13.176 17.0835 13.632 17.5395 13.632 18.1035V21.9275H13.63ZM13.63 12.6215C13.63 13.1855 13.174 13.6415 12.61 13.6415H9.808C9.244 13.6415 8.788 13.1855 8.788 12.6215V8.79751C8.788 8.23351 9.244 7.77751 9.808 7.77751H12.612C13.176 7.77751 13.632 8.23351 13.632 8.79751V12.6215H13.63ZM26.632 40.5355C26.632 41.0995 26.176 41.5555 25.612 41.5555H22.808C22.244 41.5555 21.788 41.0995 21.788 40.5355V36.7115C21.788 36.1475 22.244 35.6915 22.808 35.6915H25.612C26.176 35.6915 26.632 36.1475 26.632 36.7115V40.5355ZM13.63 50.1275C13.63 50.6915 13.174 51.1475 12.61 51.1475H9.808C9.244 51.1475 8.788 50.6915 8.788 50.1275V46.3035C8.788 45.7395 9.244 45.2835 9.808 45.2835H12.612C13.176 45.2835 13.632 45.7395 13.632 46.3035V50.1275H13.63ZM26.632 31.2315C26.632 31.7955 26.176 32.2515 25.612 32.2515H22.808C22.244 32.2515 21.788 31.7955 21.788 31.2315V27.4075C21.788 26.8435 22.244 26.3875 22.808 26.3875H25.612C26.176 26.3875 26.632 26.8435 26.632 27.4075V31.2315ZM26.632 21.9275C26.632 22.4915 26.176 22.9475 25.612 22.9475H22.808C22.244 22.9475 21.788 22.4915 21.788 21.9275V18.1035C21.788 17.5395 22.244 17.0835 22.808 17.0835H25.612C26.176 17.0835 26.632 17.5395 26.632 18.1035V21.9275ZM26.632 12.6215C26.632 13.1855 26.176 13.6415 25.612 13.6415H22.808C22.244 13.6415 21.788 13.1855 21.788 12.6215V8.79751C21.788 8.23351 22.244 7.77751 22.808 7.77751H25.612C26.176 7.77751 26.632 8.23351 26.632 8.79751V12.6215ZM24.046 58.2675V57.1075V55.9475V46.7955C24.046 45.9615 24.722 45.2855 25.556 45.2855H29.926C30.76 45.2855 31.436 45.9615 31.436 46.7955V55.9475V57.1075V58.2675" fill="#FF4F4F"/>
</g>
</g>
<defs>
<filter id="filter0_f_1223_13618" x="-10" y="-9.10449" width="55.672" height="77.3719" filterUnits="userSpaceOnUse" color-interpolation-filters="sRGB">
<feFlood flood-opacity="0" result="BackgroundImageFix"/>
<feBlend mode="normal" in="SourceGraphic" in2="BackgroundImageFix" result="shape"/>
<feGaussianBlur stdDeviation="5" result="effect1_foregroundBlur_1223_13618"/>
</filter>
<linearGradient id="paint0_linear_1223_13618" x1="-8.11416" y1="-1.65911" x2="42.6982" y2="59.4956" gradientUnits="userSpaceOnUse">
<stop offset="1.02546e-07" stop-color="#FF6E6E"/>
<stop offset="0.247" stop-color="#FF6565"/>
<stop offset="0.6561" stop-color="#FF4B4B"/>
<stop offset="1" stop-color="#FF3131"/>
</linearGradient>
<linearGradient id="paint1_linear_1223_13618" x1="48.5076" y1="89.1112" x2="11.7316" y2="32.6585" gradientUnits="userSpaceOnUse">
<stop stop-color="#101218"/>
<stop offset="1" stop-color="#70747F"/>
</linearGradient>
<linearGradient id="paint2_linear_1223_13618" x1="48.5081" y1="89.1112" x2="11.7321" y2="32.6585" gradientUnits="userSpaceOnUse">
<stop stop-color="#101218"/>
<stop offset="1" stop-color="#70747F"/>
</linearGradient>
</defs>
</svg>
